<svg width="130" height="26" viewBox="0 0 130 26" fill="none" xmlns="http://www.w3.org/2000/svg">
<g clip-path="url(#clip0_1_236)">
<path fill-rule="evenodd" clip-rule="evenodd" d="M8.63212 0.688052L-1.39194 4.00531C-2.69416 4.43625 -3.13388 4.69046 -3.56663 5.0564C-3.99937 5.42235 -4.31883 5.86487 -4.5301 6.39102C-4.74138 6.91716 -4.84447 7.41486 -4.84447 8.78777V23.7661C-4.84447 24.4336 -4.77504 24.6756 -4.64466 24.9196C-4.51429 25.1637 -4.32296 25.3552 -4.07918 25.4857C-3.8354 25.6162 -3.59359 25.6857 -2.92676 25.6857H25.8991C26.5659 25.6857 26.8077 25.6162 27.0515 25.4857C27.2953 25.3552 27.4866 25.1637 27.617 24.9196C27.7474 24.6756 27.8168 24.4336 27.8168 23.7661V8.75484C27.8168 7.39118 27.7157 6.89702 27.5077 6.37391C27.2998 5.85081 26.985 5.41008 26.5578 5.04383C26.1307 4.67759 25.6963 4.42185 24.4073 3.98053L14.8845 0.720191C13.5429 0.260842 13.0804 0.141504 12.5456 0.0618076C12.0108 -0.017889 11.5133 -0.0204465 10.9777 0.0537482C10.4421 0.127943 9.97842 0.24252 8.63212 0.688052ZM-2.35124 23.19H5.91749V10.5599C5.91749 10.0077 6.3652 9.55994 6.91749 9.55994H16.0549C16.6071 9.55994 17.0549 10.0077 17.0549 10.5599V23.19H25.3236V8.75484C25.3236 7.78756 25.2885 7.54145 25.1912 7.29663C25.1326 7.14932 25.0562 7.04241 24.9359 6.93927C24.736 6.76787 24.5148 6.65496 23.6004 6.34192L14.0777 3.08157C12.9373 2.69116 12.5658 2.58802 12.1785 2.53029C11.8786 2.48561 11.6198 2.48428 11.3195 2.52588C10.9316 2.57962 10.559 2.67893 9.41473 3.05761L-0.609326 6.37486C-1.53191 6.68017 -1.7552 6.79166 -1.95763 6.96284C-2.07958 7.06596 -2.15722 7.17351 -2.21676 7.32178C-2.31559 7.5679 -2.35124 7.81511 -2.35124 8.78777V23.19Z" fill="white"/>
<path fill-rule="evenodd" clip-rule="evenodd" d="M33.8825 8.95581C33.8825 8.67322 34.0117 8.53193 34.2701 8.53193H42.7621C42.9148 8.53193 43.0234 8.57461 43.088 8.65997C43.1526 8.74534 43.1849 8.85278 43.1849 8.9823V10.5365C43.1849 10.6425 43.1482 10.7367 43.0748 10.8191C43.0014 10.9015 42.8913 10.9428 42.7445 10.9428H36.4812V13.6273H41.3086C41.426 13.6156 41.52 13.6406 41.5905 13.7024C41.661 13.7642 41.6962 13.8687 41.6962 14.0159V15.6143C41.6962 15.7203 41.6668 15.8145 41.6081 15.8969C41.5494 15.9793 41.4554 16.0205 41.3262 16.0205H36.4812V19.235H42.9735C43.1379 19.235 43.2466 19.2703 43.2994 19.3409C43.3523 19.4116 43.3787 19.5205 43.3787 19.6677V21.2749C43.3787 21.5222 43.2495 21.6458 42.9911 21.6458H34.2701C34.1644 21.6458 34.0734 21.6164 33.997 21.5575C33.9207 21.4986 33.8825 21.4044 33.8825 21.2749V8.95581ZM52.1438 18.7051C52.2437 18.6404 52.3274 18.6006 52.3949 18.5859C52.4624 18.5712 52.5197 18.5638 52.5667 18.5638C52.6665 18.5697 52.7517 18.6227 52.8221 18.7228L53.0336 19.0142L53.659 19.9061C53.6884 19.9473 53.7119 19.99 53.7295 20.0342C53.7471 20.0783 53.7559 20.1181 53.7559 20.1534C53.7559 20.2476 53.7236 20.3315 53.659 20.4051C53.5944 20.4787 53.5092 20.5537 53.4035 20.6302C52.9043 20.9953 52.3655 21.2896 51.7871 21.5133C51.2086 21.7371 50.5729 21.8489 49.8799 21.8489C49.3572 21.8489 48.8507 21.7797 48.3603 21.6414C47.8699 21.503 47.4119 21.3088 46.9861 21.0585C46.5603 20.8083 46.1712 20.5081 45.8189 20.1578C45.4665 19.8075 45.1626 19.4175 44.9071 18.9877C44.6517 18.5579 44.4549 18.0958 44.3169 17.6013C44.1789 17.1067 44.1099 16.5916 44.1099 16.0558C44.1099 15.5201 44.1789 15.005 44.3169 14.5104C44.4549 14.0159 44.6517 13.5538 44.9071 13.124C45.1626 12.6942 45.4665 12.3042 45.8189 11.9539C46.1712 11.6036 46.5603 11.3034 46.9861 11.0531C47.4119 10.8029 47.8699 10.6087 48.3603 10.4703C48.8507 10.332 49.3572 10.2628 49.8799 10.2628C50.5318 10.2628 51.1484 10.3629 51.7298 10.563C52.3112 10.7632 52.828 11.034 53.2802 11.3755L53.2714 11.3666C53.3536 11.4491 53.4344 11.5212 53.5136 11.583C53.5929 11.6448 53.6326 11.7405 53.6326 11.87C53.6326 11.9053 53.6311 11.9465 53.6282 11.9936C53.6252 12.0407 53.6091 12.0849 53.5797 12.1261L52.8574 13.23C52.7399 13.4066 52.6107 13.4949 52.4698 13.4949C52.3699 13.4949 52.2583 13.4448 52.135 13.3448C51.8355 13.0916 51.4861 12.8856 51.0867 12.7266C50.6874 12.5676 50.2763 12.4882 49.8535 12.4882C49.3954 12.4882 48.9652 12.5838 48.5629 12.7752C48.1606 12.9665 47.8068 13.2255 47.5014 13.5523C47.196 13.879 46.9552 14.2588 46.7791 14.6915C46.6029 15.1242 46.5148 15.579 46.5148 16.0558C46.5148 16.5445 46.6029 17.0037 46.7791 17.4335C46.9552 17.8632 47.1946 18.2371 47.497 18.555C47.7995 18.8729 48.1533 19.1246 48.5585 19.31C48.9637 19.4955 49.3954 19.5882 49.8535 19.5882C50.3526 19.5882 50.7843 19.5014 51.1484 19.3277C51.5125 19.154 51.8443 18.9465 52.1438 18.7051ZM54.5399 16.0558C54.5399 15.5201 54.6089 15.0035 54.7469 14.506C54.8849 14.0085 55.0802 13.5449 55.3327 13.1152C55.5853 12.6854 55.8877 12.2954 56.2401 11.9451C56.5925 11.5948 56.983 11.2945 57.4117 11.0443C57.8404 10.7941 58.3 10.5998 58.7903 10.4615C59.2807 10.3231 59.7931 10.254 60.3275 10.254C60.8561 10.254 61.367 10.3231 61.8603 10.4615C62.3536 10.5998 62.8132 10.7941 63.239 11.0443C63.6647 11.2945 64.0538 11.5948 64.4062 11.9451C64.7585 12.2954 65.061 12.6854 65.3135 13.1152C65.566 13.5449 65.7613 14.0085 65.8993 14.506C66.0373 15.0035 66.1063 15.5201 66.1063 16.0558C66.1063 16.5916 66.0373 17.1067 65.8993 17.6013C65.7613 18.0958 65.566 18.5565 65.3135 18.9833C65.061 19.4101 64.7585 19.8001 64.4062 20.1534C64.0538 20.5066 63.6647 20.8083 63.239 21.0585C62.8132 21.3088 62.3536 21.503 61.8603 21.6414C61.367 21.7797 60.8561 21.8489 60.3275 21.8489C59.7931 21.8489 59.2807 21.7797 58.7903 21.6414C58.3 21.503 57.8404 21.3088 57.4117 21.0585C56.983 20.8083 56.5925 20.5066 56.2401 20.1534C55.8877 19.8001 55.5853 19.4101 55.3327 18.9833C55.0802 18.5565 54.8849 18.0958 54.7469 17.6013C54.6089 17.1067 54.5399 16.5916 54.5399 16.0558ZM57.0241 16.0558C57.0241 16.5268 57.1063 16.9728 57.2708 17.3937C57.4352 17.8147 57.6642 18.1811 57.9579 18.4932C58.2515 18.8052 58.5995 19.0525 59.0018 19.235C59.404 19.4175 59.843 19.5087 60.3187 19.5087C60.7827 19.5087 61.2129 19.4175 61.6093 19.235C62.0057 19.0525 62.3478 18.8052 62.6355 18.4932C62.9233 18.1811 63.1479 17.8147 63.3094 17.3937C63.4709 16.9728 63.5517 16.5268 63.5517 16.0558C63.5517 15.5907 63.4709 15.1463 63.3094 14.7224C63.1479 14.2985 62.9233 13.9261 62.6355 13.6053C62.3478 13.2844 62.0057 13.0283 61.6093 12.837C61.2129 12.6456 60.7827 12.55 60.3187 12.55C59.843 12.55 59.404 12.6456 59.0018 12.837C58.5995 13.0283 58.2515 13.2844 57.9579 13.6053C57.6642 13.9261 57.4352 14.2985 57.2708 14.7224C57.1063 15.1463 57.0241 15.5907 57.0241 16.0558ZM78.6711 9.48566C78.7416 9.52687 78.8003 9.57691 78.8473 9.63579C78.8943 9.69466 78.9178 9.76531 78.9178 9.84773C78.9178 9.91249 78.9001 9.98019 78.8649 10.0508L78.0104 11.5079C77.9106 11.6433 77.8049 11.711 77.6933 11.711C77.6581 11.711 77.6169 11.7037 77.57 11.689C77.523 11.6743 77.476 11.6522 77.429 11.6227C77.059 11.3578 76.6626 11.1518 76.2398 11.0046C75.8169 10.8574 75.3677 10.7838 74.892 10.7838C74.293 10.7838 73.7439 10.8971 73.2447 11.1238C72.7455 11.3505 72.3138 11.6581 71.9497 12.0466C71.5856 12.4352 71.3023 12.8914 71.0996 13.4154C70.897 13.9394 70.7957 14.5016 70.7957 15.1021C70.7957 15.6967 70.897 16.2545 71.0996 16.7756C71.3023 17.2966 71.5856 17.7514 71.9497 18.1399C72.3138 18.5285 72.7455 18.8346 73.2447 19.0583C73.7439 19.2821 74.293 19.3939 74.892 19.3939C75.3677 19.3939 75.8213 19.3203 76.253 19.1732C76.6846 19.026 77.0825 18.8199 77.4466 18.555C77.4936 18.5197 77.5421 18.4961 77.592 18.4843C77.6419 18.4726 77.6845 18.4637 77.7197 18.4578C77.8196 18.4578 77.9223 18.5226 78.028 18.6521L78.9001 20.1269C78.9354 20.1975 78.953 20.2623 78.953 20.3212C78.953 20.4036 78.928 20.4713 78.8781 20.5243C78.8282 20.5773 78.7709 20.6273 78.7063 20.6744C78.1543 21.0453 77.5597 21.3323 76.9225 21.5354C76.2853 21.7385 75.6143 21.8401 74.9096 21.8401C74.2871 21.8401 73.6895 21.7606 73.1169 21.6016C72.5443 21.4427 72.0085 21.216 71.5093 20.9217C71.0101 20.6273 70.5564 20.2755 70.1483 19.8664C69.7401 19.4572 69.3892 19.0039 69.0956 18.5064C68.8019 18.0089 68.5758 17.4732 68.4173 16.8992C68.2587 16.3252 68.1794 15.7262 68.1794 15.1021C68.1794 14.4781 68.2587 13.879 68.4173 13.305C68.5758 12.731 68.8019 12.1923 69.0956 11.689C69.3892 11.1856 69.7401 10.7279 70.1483 10.3158C70.5564 9.90366 71.0101 9.55189 71.5093 9.26047C72.0085 8.96905 72.5443 8.7424 73.1169 8.5805C73.6895 8.41859 74.2871 8.33765 74.9096 8.33765C75.6085 8.33765 76.2721 8.43626 76.9005 8.63348C77.5289 8.8307 78.1191 9.11476 78.6711 9.48566ZM91.6646 21.1248C91.6646 21.2307 91.6425 21.3176 91.5985 21.3853C91.5545 21.453 91.4972 21.506 91.4267 21.5442C91.3562 21.5825 91.2755 21.609 91.1845 21.6237C91.0934 21.6384 90.998 21.6458 90.8982 21.6458H89.797C89.6091 21.6458 89.4784 21.5958 89.405 21.4957C89.3316 21.3956 89.2773 21.269 89.2421 21.1159L89.1892 20.3653C88.9837 20.5714 88.7561 20.7642 88.5065 20.9437C88.2569 21.1233 87.9882 21.2793 87.7005 21.4118C87.4127 21.5442 87.1073 21.6473 86.7843 21.7209C86.4613 21.7944 86.1295 21.8312 85.7889 21.8312C85.2603 21.8312 84.7509 21.7621 84.2605 21.6237C83.7701 21.4854 83.3106 21.2911 82.8819 21.0409C82.4531 20.7907 82.0641 20.489 81.7147 20.1357C81.3652 19.7825 81.0657 19.391 80.8161 18.9612C80.5665 18.5314 80.3727 18.0693 80.2347 17.5748C80.0967 17.0802 80.0277 16.5651 80.0277 16.0294C80.0277 15.4936 80.0967 14.9785 80.2347 14.4839C80.3727 13.9894 80.5665 13.5273 80.8161 13.0975C81.0657 12.6677 81.3652 12.2777 81.7147 11.9274C82.0641 11.5771 82.4531 11.2769 82.8819 11.0267C83.3106 10.7764 83.7701 10.5822 84.2605 10.4438C84.7509 10.3055 85.2603 10.2363 85.7889 10.2363C86.1647 10.2363 86.523 10.276 86.8636 10.3555C87.2042 10.435 87.5228 10.5468 87.8194 10.6911C88.116 10.8353 88.3905 11.009 88.643 11.2121C88.8956 11.4152 89.1246 11.6375 89.3301 11.8788L89.4535 10.9339C89.4828 10.828 89.5107 10.7411 89.5372 10.6734C89.5636 10.6057 89.5959 10.5513 89.6341 10.51C89.6722 10.4688 89.7207 10.4409 89.7794 10.4262C89.8381 10.4114 89.9115 10.4041 89.9996 10.4041H90.8806C90.9745 10.4041 91.0685 10.4129 91.1624 10.4306C91.2564 10.4482 91.3416 10.4762 91.4179 10.5145C91.4943 10.5527 91.5545 10.6057 91.5985 10.6734C91.6425 10.7411 91.6646 10.825 91.6646 10.9251V21.1248ZM82.5031 16.0293C82.5031 16.5003 82.5853 16.9463 82.7497 17.3672C82.9142 17.7882 83.1432 18.1576 83.4369 18.4755C83.7305 18.7934 84.0755 19.0451 84.4719 19.2305C84.8683 19.416 85.3014 19.5087 85.7713 19.5087C86.247 19.5087 86.6918 19.416 87.1059 19.2305C87.5199 19.0451 87.8796 18.7934 88.185 18.4755C88.4904 18.1576 88.7311 17.7882 88.9073 17.3672C89.0835 16.9463 89.1716 16.5003 89.1716 16.0293C89.1716 15.5643 89.0835 15.1212 88.9073 14.7003C88.7311 14.2794 88.4904 13.9099 88.185 13.592C87.8796 13.2741 87.5199 13.021 87.1059 12.8326C86.6918 12.6442 86.247 12.55 85.7713 12.55C85.3014 12.55 84.8683 12.6442 84.4719 12.8326C84.0755 13.021 83.7305 13.2741 83.4369 13.592C83.1432 13.9099 82.9142 14.2794 82.7497 14.7003C82.5853 15.1212 82.5031 15.5643 82.5031 16.0293ZM95.7256 21.1159C95.6727 21.2926 95.6155 21.425 95.5538 21.5133C95.4921 21.6016 95.3732 21.6458 95.197 21.6458H93.8669C93.4969 21.6458 93.3119 21.4692 93.3119 21.1159V7.63117C93.3119 7.4781 93.3647 7.35153 93.4705 7.25144C93.5762 7.15136 93.6966 7.10132 93.8316 7.10132H95.2851C95.4613 7.10132 95.5993 7.15283 95.6992 7.25586C95.799 7.35889 95.8489 7.48399 95.8489 7.63117V11.6846C96.2718 11.2489 96.7577 10.9015 97.3068 10.6425C97.8559 10.3835 98.4858 10.2539 99.1964 10.2539C99.9892 10.2539 100.728 10.4055 101.412 10.7087C102.096 11.0119 102.692 11.4255 103.2 11.9495C103.708 12.4734 104.106 13.0872 104.394 13.7907C104.682 14.4943 104.825 15.2493 104.825 16.0558C104.825 16.8565 104.682 17.6086 104.394 18.3121C104.106 19.0157 103.708 19.6294 103.2 20.1534C102.692 20.6773 102.096 21.0909 101.412 21.3941C100.728 21.6973 99.9892 21.8489 99.1964 21.8489C98.8499 21.8489 98.5181 21.8106 98.201 21.7341C97.8838 21.6576 97.5814 21.5531 97.2936 21.4206C97.0058 21.2881 96.7372 21.1307 96.4876 20.9482C96.238 20.7657 96.0104 20.5714 95.8049 20.3653L95.7256 21.1159ZM102.35 16.0558C102.35 15.5907 102.268 15.1463 102.103 14.7224C101.939 14.2985 101.71 13.9261 101.416 13.6053C101.123 13.2844 100.776 13.0283 100.377 12.837C99.9775 12.6456 99.5458 12.55 99.0819 12.55C98.6121 12.55 98.1702 12.6456 97.7561 12.837C97.3421 13.0283 96.9809 13.2844 96.6726 13.6053C96.3643 13.9261 96.122 14.2985 95.9458 14.7224C95.7697 15.1463 95.6816 15.5907 95.6816 16.0558V16.1177C95.6874 16.5828 95.7814 17.0199 95.9635 17.429C96.1455 17.8382 96.3892 18.1973 96.6946 18.5064C97 18.8155 97.3568 19.0598 97.7649 19.2394C98.1731 19.4189 98.6121 19.5087 99.0819 19.5087C99.5458 19.5087 99.9775 19.4175 100.377 19.235C100.776 19.0525 101.123 18.8052 101.416 18.4932C101.71 18.1811 101.939 17.8147 102.103 17.3937C102.268 16.9728 102.35 16.5268 102.35 16.0558ZM106.173 10.9693C106.173 10.8162 106.217 10.6881 106.305 10.5851C106.393 10.4821 106.523 10.4306 106.693 10.4306H108.155C108.22 10.4306 108.286 10.4438 108.354 10.4703C108.421 10.4968 108.481 10.5351 108.534 10.5851C108.587 10.6351 108.631 10.6925 108.666 10.7573C108.701 10.8221 108.719 10.8927 108.719 10.9693V21.1159C108.719 21.4692 108.534 21.6458 108.164 21.6458H106.702C106.349 21.6458 106.173 21.4692 106.173 21.1159V10.9693ZM106.173 7.066C106.173 6.71276 106.346 6.53614 106.693 6.53614H108.173C108.337 6.53614 108.469 6.5803 108.569 6.66861C108.669 6.75692 108.719 6.88938 108.719 7.066V8.3818C108.719 8.51721 108.672 8.64525 108.578 8.76594C108.484 8.88663 108.352 8.94698 108.182 8.94698H106.702C106.349 8.94698 106.173 8.75859 106.173 8.3818V7.066ZM110.93 10.9516C110.93 10.8692 110.965 10.7809 111.036 10.6867C111.106 10.5925 111.174 10.5336 111.238 10.51C111.285 10.4629 111.356 10.4379 111.45 10.435C111.544 10.432 111.632 10.4306 111.714 10.4306H112.604C112.774 10.4306 112.9 10.4865 112.983 10.5984C113.065 10.7102 113.121 10.8338 113.15 10.9693L113.247 11.9053C113.382 11.7052 113.548 11.5079 113.745 11.3137C113.941 11.1194 114.175 10.9457 114.445 10.7926C114.715 10.6396 115.023 10.5159 115.37 10.4217C115.716 10.3275 116.107 10.2804 116.542 10.2804C117.235 10.2804 117.851 10.4055 118.391 10.6558C118.932 10.906 119.387 11.2489 119.757 11.6846C120.127 12.1202 120.407 12.6324 120.598 13.2211C120.789 13.8099 120.884 14.4427 120.884 15.1198V21.01C120.884 21.2219 120.835 21.3809 120.735 21.4868C120.635 21.5928 120.491 21.6458 120.303 21.6458H118.964C118.729 21.6458 118.572 21.6016 118.493 21.5133C118.413 21.425 118.374 21.269 118.374 21.0453V15.1639C118.374 14.8519 118.321 14.5472 118.215 14.2499C118.11 13.9526 117.955 13.6862 117.753 13.4507C117.55 13.2152 117.299 13.0268 117 12.8856C116.7 12.7443 116.354 12.6736 115.96 12.6736C115.69 12.6736 115.41 12.7281 115.119 12.837C114.828 12.9459 114.562 13.1004 114.322 13.3006C114.081 13.5008 113.881 13.7436 113.723 14.0292C113.564 14.3147 113.482 14.637 113.476 14.9961V20.7186C113.476 20.8304 113.47 20.9423 113.458 21.0541C113.447 21.166 113.422 21.2661 113.383 21.3544C113.345 21.4427 113.291 21.5133 113.221 21.5663C113.15 21.6193 113.059 21.6458 112.947 21.6458H111.494C111.3 21.6458 111.158 21.6002 111.067 21.5089C110.976 21.4177 110.93 21.2867 110.93 21.1159V10.9516ZM123.439 18.4843C123.562 18.6786 123.718 18.8464 123.906 18.9877C124.094 19.129 124.286 19.2453 124.483 19.3365C124.68 19.4278 124.868 19.494 125.047 19.5352C125.226 19.5764 125.368 19.597 125.474 19.597C125.638 19.597 125.832 19.5794 126.055 19.544C126.279 19.5087 126.489 19.4454 126.685 19.3542C126.882 19.2629 127.049 19.1393 127.187 18.9833C127.325 18.8273 127.394 18.6286 127.394 18.3872C127.394 18.1517 127.34 17.9604 127.231 17.8132C127.123 17.666 126.976 17.5438 126.791 17.4467C126.606 17.3496 126.395 17.2686 126.157 17.2039C125.919 17.1391 125.668 17.0685 125.404 16.9919C124.787 16.8271 124.261 16.6284 123.827 16.3958C123.392 16.1633 123.035 15.8969 122.756 15.5966C122.477 15.2964 122.273 14.9667 122.144 14.6076C122.015 14.2485 121.95 13.857 121.95 13.4331C121.95 12.9562 122.044 12.5205 122.232 12.1261C122.42 11.7316 122.684 11.3931 123.025 11.1105C123.366 10.828 123.775 10.6087 124.254 10.4526C124.733 10.2966 125.263 10.2186 125.844 10.2186C126.255 10.2186 126.622 10.2554 126.945 10.329C127.268 10.4026 127.568 10.513 127.844 10.6602C128.12 10.8074 128.38 10.9928 128.623 11.2165C128.867 11.4402 129.115 11.7022 129.368 12.0025C129.456 12.1084 129.5 12.2115 129.5 12.3115C129.5 12.4175 129.441 12.5176 129.324 12.6118C129.236 12.6824 129.131 12.7708 129.011 12.8767C128.891 12.9827 128.772 13.0857 128.654 13.1858C128.537 13.2859 128.425 13.3713 128.319 13.4419C128.214 13.5125 128.126 13.5479 128.055 13.5479C127.926 13.5479 127.8 13.4713 127.676 13.3183C127.547 13.1652 127.418 13.0313 127.289 12.9165C127.16 12.8017 127.024 12.7075 126.884 12.6339C126.743 12.5603 126.59 12.5044 126.425 12.4661C126.261 12.4278 126.082 12.4087 125.888 12.4087C125.73 12.4087 125.564 12.4322 125.39 12.4793C125.217 12.5264 125.059 12.5971 124.915 12.6913C124.771 12.7855 124.65 12.8988 124.554 13.0313C124.457 13.1637 124.408 13.3124 124.408 13.4772C124.408 13.6656 124.468 13.826 124.589 13.9585C124.709 14.091 124.862 14.2058 125.047 14.3029C125.232 14.4001 125.433 14.481 125.65 14.5458C125.868 14.6105 126.07 14.6694 126.258 14.7224C126.798 14.8754 127.295 15.0521 127.747 15.2522C128.199 15.4524 128.588 15.6952 128.914 15.9808C129.24 16.2663 129.494 16.6019 129.676 16.9875C129.858 17.3731 129.949 17.825 129.949 18.343C129.949 18.8906 129.84 19.3807 129.623 19.8134C129.406 20.2461 129.105 20.6126 128.72 20.9128C128.336 21.2131 127.88 21.4427 127.355 21.6016C126.829 21.7606 126.258 21.8401 125.641 21.8401C125.271 21.8401 124.896 21.8003 124.514 21.7209C124.132 21.6414 123.767 21.5177 123.417 21.35C123.068 21.1822 122.745 20.9673 122.448 20.7053C122.152 20.4433 121.903 20.1328 121.704 19.7736C121.616 19.6265 121.572 19.494 121.572 19.3763C121.572 19.2997 121.591 19.2335 121.629 19.1776C121.667 19.1216 121.718 19.0672 121.783 19.0142L122.77 18.2547C122.858 18.2017 122.937 18.1753 123.007 18.1753C123.09 18.1753 123.163 18.2032 123.228 18.2591C123.292 18.3151 123.363 18.3901 123.439 18.4843Z" fill="white"/>
</g>
<defs>
<clipPath id="clip0_1_236">
<rect width="135" height="25.8333" fill="white" transform="translate(-5)"/>
</clipPath>
</defs>
</svg>
